<?xml version="1.0" standalone="no"?>
<!DOCTYPE svg PUBLIC "-//W3C//DTD SVG 20010904//EN"
 "http://www.w3.org/TR/2001/REC-SVG-20010904/DTD/svg10.dtd">
<svg version="1.0" xmlns="http://www.w3.org/2000/svg"
 width="1328.000000pt" height="1328.000000pt" viewBox="0 0 1328.000000 1328.000000"
 preserveAspectRatio="xMidYMid meet">
<metadata>
Created by potrace 1.14, written by Peter Selinger 2001-2017
</metadata>
<g transform="translate(0.000000,1328.000000) scale(0.100000,-0.100000)"
fill="#000000" stroke="none">
<path d="M7705 12811 c-27 -27 -304 -304 -614 -615 -310 -311 -568 -566 -573
-566 -13 0 -293 132 -534 252 -12 5 -35 7 -50 4 -16 -3 -51 -8 -79 -11 -27 -3
-61 -8 -75 -10 -48 -9 -173 -26 -355 -51 -27 -3 -57 -8 -66 -9 -9 -2 -40 -6
-70 -10 -30 -3 -79 -10 -109 -15 -30 -5 -80 -12 -110 -15 -30 -3 -62 -8 -70
-10 -8 -2 -37 -6 -65 -10 -27 -3 -61 -8 -75 -10 -59 -9 -280 -40 -364 -50 -22
-3 -51 -7 -65 -9 -40 -7 -181 -27 -213 -32 -48 -6 -97 -12 -248 -34 -80 -11
-163 -23 -185 -26 -22 -3 -67 -9 -100 -14 -33 -5 -80 -12 -105 -15 -25 -3 -56
-8 -70 -10 -14 -2 -79 -11 -145 -20 -66 -9 -131 -18 -145 -20 -14 -2 -61 -9
-106 -15 -44 -6 -89 -12 -100 -14 -10 -2 -41 -7 -69 -10 -27 -4 -61 -8 -75
-11 -14 -2 -45 -7 -70 -10 -25 -2 -54 -6 -65 -9 -11 -2 -45 -7 -75 -10 -30 -4
-66 -8 -80 -10 -14 -2 -47 -7 -73 -11 -27 -4 -56 -8 -65 -10 -16 -3 -38 -6
-162 -21 -25 -4 -52 -7 -60 -9 -8 -1 -40 -6 -70 -10 -30 -4 -64 -9 -75 -11
-11 -3 -40 -7 -65 -10 -25 -3 -56 -7 -70 -9 -14 -2 -47 -7 -75 -10 -27 -3 -75
-10 -105 -15 -30 -5 -77 -12 -105 -15 -27 -3 -63 -7 -80 -10 -110 -18 -149
-24 -205 -30 -25 -2 -56 -7 -70 -9 -14 -3 -47 -7 -75 -11 -27 -3 -59 -8 -70
-10 -11 -2 -40 -7 -65 -10 -25 -3 -56 -7 -70 -9 -14 -3 -47 -7 -75 -11 -27 -3
-75 -10 -105 -15 -30 -5 -80 -12 -110 -15 -57 -6 -97 -12 -140 -20 -14 -2 -50
-7 -80 -10 -30 -3 -62 -8 -70 -10 -8 -2 -39 -7 -69 -10 -30 -4 -61 -8 -70 -10
-9 -1 -43 -6 -76 -9 -168 -19 -210 -28 -210 -46 0 -9 24 -24 60 -37 228 -82
646 -236 675 -247 19 -8 94 -36 165 -61 72 -26 139 -51 150 -56 18 -8 251 -94
500 -184 50 -18 122 -45 160 -60 39 -15 75 -28 80 -29 6 -2 23 -8 38 -14 16
-7 30 -12 32 -12 2 0 100 -36 217 -79 117 -43 350 -129 518 -191 168 -61 370
-137 450 -167 80 -30 160 -60 177 -66 24 -7 58 -42 125 -126 172 -213 288
-356 301 -371 7 -8 51 -62 98 -120 46 -58 86 -107 89 -110 3 -3 21 -25 40 -50
19 -25 39 -50 45 -56 13 -15 67 -80 147 -179 156 -194 453 -560 458 -565 3 -3
30 -36 61 -75 61 -76 311 -385 364 -450 163 -199 474 -583 490 -604 20 -28
105 -132 115 -141 6 -5 225 -278 297 -370 24 -30 57 -71 72 -91 l29 -35 -80
-85 c-44 -46 -146 -153 -227 -238 -80 -84 -164 -172 -185 -195 -22 -22 -108
-113 -192 -201 -84 -88 -177 -185 -206 -216 -254 -268 -313 -329 -324 -329
-11 0 -47 -15 -214 -88 -25 -10 -146 -63 -270 -117 -124 -54 -285 -124 -357
-156 -73 -33 -135 -59 -138 -59 -2 0 -33 -13 -67 -29 -35 -15 -128 -56 -208
-91 -80 -34 -173 -75 -208 -91 -35 -16 -65 -29 -67 -29 -3 0 -28 -11 -57 -24
-74 -34 -378 -166 -383 -166 -2 0 -32 -13 -67 -29 -35 -16 -97 -43 -138 -61
-94 -40 -224 -97 -270 -117 -19 -9 -88 -39 -155 -67 -123 -53 -185 -83 -185
-91 0 -3 183 -265 481 -690 176 -249 209 -299 207 -306 -2 -4 -88 -96 -193
-204 -104 -109 -193 -203 -197 -209 -13 -20 -8 -30 40 -82 26 -28 79 -86 117
-129 39 -44 77 -86 85 -95 8 -9 66 -74 129 -145 63 -72 122 -137 130 -146 9
-9 31 -34 50 -55 43 -48 194 -217 201 -224 5 -5 127 -143 185 -209 17 -19 37
-41 46 -50 8 -9 71 -79 139 -156 69 -77 129 -145 135 -151 78 -87 137 -153
152 -170 10 -12 52 -58 93 -104 41 -46 82 -91 90 -100 34 -39 147 -165 182
-204 21 -22 62 -69 91 -103 47 -56 85 -79 88 -53 2 18 17 70 68 240 16 52 31
104 34 115 3 11 22 74 42 140 20 66 38 128 40 138 2 9 6 21 9 25 3 5 7 19 10
33 3 13 32 114 65 224 98 331 212 717 227 767 36 125 42 144 50 165 5 12 140
119 299 238 160 119 301 225 315 235 14 10 153 114 310 231 157 116 340 253
407 303 67 50 132 99 145 108 13 9 143 106 289 215 147 109 279 207 294 218
15 11 64 48 108 81 45 34 224 167 397 296 173 129 396 294 495 368 99 74 268
199 375 279 107 79 292 217 410 305 118 88 341 254 495 368 154 115 291 217
305 227 122 92 510 380 700 521 129 95 262 194 295 219 l60 45 77 185 c225
545 331 799 343 826 7 17 39 93 70 170 31 77 63 154 70 170 8 17 41 98 75 180
33 83 65 159 70 170 5 11 32 76 61 145 69 168 73 177 97 235 12 28 67 160 123
295 55 135 110 264 120 287 10 23 19 44 19 46 0 3 53 130 119 283 65 154 158
371 206 484 110 260 107 252 168 395 l52 120 515 2 c671 2 620 1 620 16 0 12
-55 71 -419 446 -117 121 -249 258 -292 303 l-78 83 -660 0 -660 0 -39 -35
c-22 -19 -74 -66 -117 -105 -43 -38 -83 -75 -89 -80 -6 -6 -45 -39 -86 -75
-41 -36 -77 -68 -80 -71 -3 -3 -30 -27 -60 -54 -61 -53 -205 -182 -230 -205
-9 -8 -54 -48 -101 -89 -46 -41 -96 -86 -111 -99 l-26 -24 -30 29 c-16 15 -83
78 -148 140 -66 61 -146 138 -180 170 -33 32 -94 89 -135 127 -41 38 -122 115
-180 170 -58 56 -170 162 -249 236 -78 74 -160 151 -180 170 -20 19 -99 94
-175 165 -76 72 -159 150 -185 175 -26 25 -82 78 -125 118 -43 40 -76 75 -73
77 2 3 96 43 209 91 204 86 262 110 634 265 110 46 208 88 217 94 27 17 7 32
-52 39 -30 4 -82 11 -115 16 -33 5 -85 12 -115 15 -30 3 -62 7 -70 10 -8 2
-37 6 -65 10 -65 8 -114 15 -145 20 -14 2 -45 7 -70 10 -25 4 -56 8 -70 10
-14 2 -61 9 -105 15 -44 6 -91 12 -105 14 -14 3 -47 7 -75 11 -52 6 -105 14
-134 20 -9 2 -44 6 -76 10 -33 4 -69 9 -80 11 -11 3 -40 7 -65 10 -25 3 -56 7
-70 9 -14 2 -47 7 -75 10 -27 3 -72 10 -100 15 -47 8 -103 16 -185 26 -19 2
-48 6 -65 9 -26 4 -37 -3 -80 -44z"/>
</g>
</svg>
