<svg version="1.1" id="Layer_1" xmlns="http://www.w3.org/2000/svg" xmlns:xlink="http://www.w3.org/1999/xlink" x="0px" y="0px"
	 width="100%" viewBox="0 0 1328 1245" enable-background="new 0 0 1328 1245" xml:space="preserve">
<path fill="#FFFFFF" opacity="1.000000" stroke="none" 
	d="
M1329.000000,234.000000 
	C1329.000000,571.261719 1329.000000,908.523438 1329.000000,1246.000000 
	C1026.969116,1246.000000 724.938171,1246.000000 422.567780,1245.646484 
	C422.807037,1244.511108 423.665375,1243.811646 423.923584,1242.935181 
	C430.659210,1220.075317 437.303284,1197.188232 444.023956,1174.323975 
	C452.666840,1144.920166 461.381744,1115.537476 470.024323,1086.133667 
	C472.764191,1076.812012 475.371643,1067.451538 478.293335,1058.016357 
	C478.733887,1057.626099 478.920746,1057.328247 479.068420,1057.027832 
	C479.029205,1057.025269 479.056793,1057.098877 479.371033,1056.957275 
	C480.990082,1055.844971 482.295044,1054.874390 483.599731,1053.903564 
	C505.058807,1037.937134 526.521423,1021.975342 547.975891,1006.002686 
	C569.561646,989.932312 591.127014,973.834534 612.723816,957.778992 
	C634.185242,941.824097 655.694275,925.933228 677.146362,909.965820 
	C697.430176,894.868042 717.676086,879.719360 737.921814,864.570557 
	C758.173035,849.417969 778.364441,834.185059 798.653931,819.083984 
	C820.101196,803.121094 841.658020,787.305542 863.121399,771.364258 
	C883.418823,756.288940 903.643677,741.115906 923.925049,726.019043 
	C942.762085,711.997314 961.607422,697.986694 980.493652,684.031433 
	C999.107483,670.277405 1017.841553,656.684875 1036.373047,642.821350 
	C1040.581909,639.672791 1044.173340,635.698914 1048.371094,631.933594 
	C1052.777710,622.217651 1056.958374,612.712708 1060.927246,603.120178 
	C1069.973511,581.255859 1078.853760,559.322815 1087.917114,537.465637 
	C1098.166016,512.749023 1108.611816,488.114014 1118.841797,463.389679 
	C1129.005371,438.826233 1139.020020,414.201172 1149.072876,389.592010 
	C1152.133545,382.099640 1155.103638,374.570282 1158.394043,366.935059 
	C1158.814087,366.230377 1158.955688,365.648499 1159.423706,364.889404 
	C1165.148071,351.927368 1170.556885,339.147095 1175.941284,326.356506 
	C1182.392578,311.031433 1188.737671,295.661011 1195.286743,280.377960 
	C1201.772461,265.242645 1208.454956,250.191681 1215.514648,235.057983 
	C1251.584595,235.008163 1287.191284,235.020752 1322.797729,234.957306 
	C1324.865723,234.953613 1326.932617,234.333328 1329.000000,234.000000 
z"/>
<path fill="#FFFFFF" opacity="1.000000" stroke="none" 
	d="
M420.000000,1246.000000 
	C280.356964,1246.000000 140.713898,1246.000000 1.035426,1246.000000 
	C1.035426,831.093811 1.035426,416.187592 1.035426,1.000000 
	C258.695984,1.000000 516.392029,1.000000 774.459106,1.326172 
	C743.395325,33.091667 711.955200,64.525581 680.544006,95.988419 
	C679.167297,97.367432 678.172180,99.126297 676.801636,100.512848 
	C669.078918,108.325951 661.302368,116.086029 653.502869,123.822479 
	C653.250549,124.072723 652.552124,123.873161 651.890015,123.570786 
	C635.765747,115.637314 619.848083,107.941284 603.826355,100.468468 
	C601.124023,99.208054 597.972473,98.910683 594.603943,98.097191 
	C589.495605,98.684204 584.816711,99.379364 580.127014,99.992340 
	C572.012390,101.052986 563.878479,101.973824 555.775513,103.115417 
	C544.783447,104.664024 533.821899,106.429893 522.830383,107.982399 
	C512.465027,109.446465 502.067200,110.680878 491.702667,112.150253 
	C478.445984,114.029633 465.217407,116.107574 451.959564,117.978371 
	C441.592896,119.441208 431.187988,120.633255 420.822235,122.102219 
	C409.994537,123.636658 399.205719,125.445976 388.377075,126.973305 
	C377.847809,128.458405 367.277527,129.652283 356.747528,131.132416 
	C345.917267,132.654739 335.125031,134.447220 324.295624,135.975952 
	C313.767883,137.462097 303.205872,138.704285 292.674011,140.162704 
	C281.512451,141.708313 270.373352,143.415497 259.215790,144.990646 
	C249.016190,146.430573 238.799332,147.748306 228.600464,149.193253 
	C217.605789,150.750961 206.631424,152.453125 195.632965,153.982773 
	C184.940765,155.469833 174.219193,156.746307 163.529099,158.247635 
	C152.858566,159.746231 142.221069,161.479935 131.550339,162.976959 
	C123.284912,164.136520 114.978409,165.002869 106.712105,166.156754 
	C95.716393,167.691650 84.747643,169.418747 73.756561,170.988068 
	C65.661812,172.143845 57.548508,173.169250 49.445915,174.270737 
	C40.378574,175.503372 31.313869,176.755417 22.248272,178.000854 
	C16.576710,178.780029 10.881809,179.430969 5.253330,180.448822 
	C4.050600,180.666321 3.089699,182.221085 2.017386,183.159775 
	C2.985226,184.087418 3.791748,185.451157 4.944939,185.877731 
	C24.594294,193.146072 44.301113,200.258774 63.966141,207.485077 
	C95.675148,219.137177 127.371750,230.823196 159.056854,242.540146 
	C186.172195,252.567200 213.252045,262.690216 240.370300,272.709351 
	C259.718353,279.857697 279.092163,286.936829 298.478027,293.982056 
	C307.925537,297.415527 317.426819,300.700989 327.041382,304.363708 
	C332.674500,311.196838 338.266235,317.641418 343.645294,324.258881 
	C354.581482,337.712952 365.366699,351.289612 376.282593,364.760284 
	C385.356354,375.957733 394.564941,387.045868 403.646362,398.237183 
	C413.231812,410.049561 422.702606,421.954987 432.287811,433.767548 
	C441.369049,444.959015 450.576904,456.047760 459.650299,467.245514 
	C470.565735,480.716553 481.361633,494.284515 492.277466,507.755219 
	C501.351257,518.952698 510.573944,530.029419 519.640198,541.232910 
	C531.884399,556.363525 544.042725,571.563599 556.236450,586.735107 
	C564.226990,596.677063 572.198181,606.634583 580.209839,616.559509 
	C585.741272,623.411987 591.327026,630.220642 596.826843,637.375732 
	C588.013489,647.134705 579.334778,656.635925 570.493164,665.982971 
	C556.739563,680.522827 542.914368,694.995544 529.045471,709.425537 
	C517.792480,721.133911 506.385834,732.694519 495.135529,744.405334 
	C489.307953,750.471558 483.671814,756.721619 477.568207,762.936096 
	C473.431946,764.506409 469.640228,765.945801 465.927704,767.566528 
	C449.679962,774.659363 433.477692,781.856445 417.216675,788.918518 
	C395.149780,798.502136 373.026733,807.956543 350.961151,817.543091 
	C334.700684,824.607605 318.516968,831.848694 302.256622,838.913391 
	C282.577271,847.463562 262.843597,855.888550 243.151825,864.410156 
	C229.720139,870.222656 216.364578,876.213501 202.884827,881.911316 
	C197.075272,884.366943 196.718384,884.687744 200.197525,889.678589 
	C211.844788,906.386597 223.546768,923.056458 235.230164,939.739197 
	C245.783463,954.808411 256.339844,969.875549 266.590851,985.077515 
	C252.749756,999.287292 239.212708,1013.363098 225.167862,1027.966919 
	C231.721222,1035.113647 237.996994,1041.825073 244.125580,1048.668335 
	C257.639252,1063.757935 271.065491,1078.925659 284.554199,1094.037598 
	C290.702667,1100.925903 296.943481,1107.731934 303.091919,1114.620239 
	C316.580780,1129.732056 330.024414,1144.884277 343.513245,1159.996094 
	C349.661713,1166.884399 355.900574,1173.692017 362.051056,1180.578613 
	C375.654968,1195.810791 389.247955,1211.052734 402.806122,1226.325562 
	C408.588043,1232.838745 414.271698,1239.439209 420.000000,1246.000000 
z"/>
<path fill="#FF9E00" opacity="1.000000" stroke="none" 
	d="
M477.949188,762.888611 
	C483.671814,756.721619 489.307953,750.471558 495.135529,744.405334 
	C506.385834,732.694519 517.792480,721.133911 529.045471,709.425537 
	C542.914368,694.995544 556.739563,680.522827 570.493164,665.982971 
	C579.334778,656.635925 588.013489,647.134705 597.064270,637.263550 
	C597.574768,636.551880 597.786194,636.279358 598.398315,636.006836 
	C599.868042,635.997253 600.936951,635.987671 602.002441,635.985229 
	C601.999023,635.992493 601.990723,636.007874 601.992004,636.418945 
	C599.426514,645.736267 596.896423,654.653259 594.286743,663.546875 
	C581.968811,705.525330 569.677307,747.511597 557.282104,789.467285 
	C547.044495,824.119812 536.622681,858.717896 526.377136,893.368042 
	C512.749756,939.455750 499.173187,985.558533 485.676697,1031.684692 
	C483.219452,1040.082764 481.250946,1048.623779 479.056824,1057.098877 
	C479.056793,1057.098877 479.029205,1057.025269 478.823120,1057.132324 
	C478.424591,1057.529053 478.232117,1057.818970 478.039673,1058.108765 
	C475.371643,1067.451538 472.764191,1076.812012 470.024323,1086.133667 
	C461.381744,1115.537476 452.666840,1144.920166 444.023956,1174.323975 
	C437.303284,1197.188232 430.659210,1220.075317 423.923584,1242.935181 
	C423.665375,1243.811646 422.807037,1244.511108 422.114136,1245.646484 
	C421.555542,1246.000000 421.111115,1246.000000 420.333344,1246.000000 
	C414.271698,1239.439209 408.588043,1232.838745 402.806122,1226.325562 
	C389.247955,1211.052734 375.654968,1195.810791 362.051056,1180.578613 
	C355.900574,1173.692017 349.661713,1166.884399 343.513245,1159.996094 
	C330.024414,1144.884277 316.580780,1129.732056 303.091919,1114.620239 
	C296.943481,1107.731934 290.702667,1100.925903 284.554199,1094.037598 
	C271.065491,1078.925659 257.639252,1063.757935 244.125580,1048.668335 
	C237.996994,1041.825073 231.721222,1035.113647 225.167862,1027.966919 
	C239.212708,1013.363098 252.749756,999.287292 266.917786,985.218872 
	C269.374725,984.641907 271.765778,984.601990 272.936829,983.386597 
	C282.033112,973.945801 290.860199,964.246521 299.836487,954.689026 
	C311.205444,942.584045 322.640198,930.540894 334.040100,918.464905 
	C350.797546,900.713867 367.548981,882.957153 384.303436,865.203308 
	C395.472961,853.367432 406.613251,841.503784 417.820618,829.703918 
	C431.664276,815.128235 445.573242,800.614624 459.435059,786.056152 
	C465.046021,780.163208 470.710754,774.314758 476.107819,768.230347 
	C477.262024,766.929199 477.363007,764.693665 477.949188,762.888611 
z"/>
<path fill="#FFFFFF" opacity="1.000000" stroke="none" 
	d="
M783.000000,1.000001 
	C964.898621,1.000000 1146.797241,1.000000 1329.000000,1.000000 
	C1329.000000,77.355705 1329.000000,153.711823 1328.672485,230.452515 
	C1312.932983,215.092346 1297.521118,199.347488 1282.108521,183.603378 
	C1281.643921,183.128815 1281.161255,182.671539 1280.704224,182.190002 
	C1270.502808,171.443283 1260.303589,160.694290 1249.869385,149.575073 
	C1205.769287,149.191391 1161.903687,149.178345 1117.693115,149.178635 
	C1113.678833,152.183136 1109.903809,155.054367 1106.359131,158.186371 
	C1091.206543,171.574646 1076.128784,185.047516 1061.010498,198.474579 
	C1048.353271,209.715805 1035.677979,220.936401 1022.700195,232.022812 
	C1017.319031,227.146469 1012.224915,222.438171 1007.182251,217.675522 
	C994.677856,205.865372 982.203918,194.023026 969.704529,182.207565 
	C957.809143,170.962967 945.853455,159.781815 934.002930,148.490219 
	C918.059204,133.298538 902.218933,117.998291 886.279724,102.801842 
	C876.852112,93.813568 867.319275,84.935677 858.013306,75.686417 
	C865.944885,71.986832 873.648376,68.491676 881.457886,65.252380 
	C908.470825,54.047832 935.532959,42.961842 962.517883,31.690603 
	C963.780945,31.163036 964.480652,29.286537 966.075867,27.216705 
	C951.572021,25.339157 938.598816,23.778805 925.664001,21.947618 
	C915.331543,20.484850 905.058716,18.605068 894.735535,17.071327 
	C884.876099,15.606492 874.989624,14.321656 865.108215,13.008788 
	C854.249146,11.566032 843.372498,10.253236 832.521790,8.751605 
	C821.690552,7.252678 810.873962,5.642537 800.066833,3.977854 
	C794.360352,3.098855 788.687866,1.999739 783.000000,1.000001 
z"/>
<path fill="#FF8500" opacity="1.000000" stroke="none" 
	d="
M857.833740,76.008163 
	C867.319275,84.935677 876.852112,93.813568 886.279724,102.801842 
	C902.218933,117.998291 918.059204,133.298538 934.002930,148.490219 
	C945.853455,159.781815 957.809143,170.962967 969.704529,182.207565 
	C982.203918,194.023026 994.677856,205.865372 1007.182251,217.675522 
	C1012.224915,222.438171 1017.319031,227.146469 1022.653809,232.357697 
	C1017.835693,237.500793 1012.804260,242.222397 1007.659912,246.817688 
	C999.403931,254.192444 990.943176,261.343506 982.833801,268.874329 
	C979.225037,272.225616 976.260803,276.270996 972.676880,279.859131 
	C970.368469,278.871216 968.355652,278.092163 966.410706,277.170044 
	C933.103699,261.378357 899.807007,245.564713 866.503723,229.765121 
	C847.758179,220.871933 828.989502,212.027283 810.258057,203.104660 
	C773.537354,185.613007 736.836304,168.080185 700.125244,150.568375 
	C685.278381,143.486160 670.488708,136.278275 655.523132,129.456406 
	C652.653259,128.148193 651.676514,126.704979 652.061646,123.883286 
	C652.552124,123.873161 653.250549,124.072723 653.502869,123.822479 
	C661.302368,116.086029 669.078918,108.325951 676.801636,100.512848 
	C678.172180,99.126297 679.167297,97.367432 680.544006,95.988419 
	C711.955200,64.525581 743.395325,33.091667 774.915039,1.326172 
	C775.750000,1.000000 776.500000,1.000000 777.766357,1.301644 
	C781.574280,4.632524 784.909851,7.615584 788.149963,10.698946 
	C802.954834,24.787767 817.733459,38.904217 832.520630,53.011677 
	C839.975708,60.124123 847.411743,67.256767 854.908325,74.325264 
	C855.704529,75.076004 856.850220,75.456108 857.833740,76.008163 
z"/>
<path fill="#FFB600" opacity="1.000000" stroke="none" 
	d="
M858.013306,75.686417 
	C856.850220,75.456108 855.704529,75.076004 854.908325,74.325264 
	C847.411743,67.256767 839.975708,60.124123 832.520630,53.011677 
	C817.733459,38.904217 802.954834,24.787767 788.149963,10.698946 
	C784.909851,7.615584 781.574280,4.632524 778.141357,1.301644 
	C779.388916,1.000000 780.777771,1.000000 782.583374,1.000001 
	C788.687866,1.999739 794.360352,3.098855 800.066833,3.977854 
	C810.873962,5.642537 821.690552,7.252678 832.521790,8.751605 
	C843.372498,10.253236 854.249146,11.566032 865.108215,13.008788 
	C874.989624,14.321656 884.876099,15.606492 894.735535,17.071327 
	C905.058716,18.605068 915.331543,20.484850 925.664001,21.947618 
	C938.598816,23.778805 951.572021,25.339157 966.075867,27.216705 
	C964.480652,29.286537 963.780945,31.163036 962.517883,31.690603 
	C935.532959,42.961842 908.470825,54.047832 881.457886,65.252380 
	C873.648376,68.491676 865.944885,71.986832 858.013306,75.686417 
z"/>
<path fill="#CC310D" opacity="1.000000" stroke="none" 
	d="
M1250.104126,149.945709 
	C1260.303589,160.694290 1270.502808,171.443283 1280.704224,182.190002 
	C1281.161255,182.671539 1281.643921,183.128815 1282.108521,183.603378 
	C1297.521118,199.347488 1312.932983,215.092346 1328.672485,230.918549 
	C1329.000000,231.750000 1329.000000,232.500000 1329.000000,233.625000 
	C1326.932617,234.333328 1324.865723,234.953613 1322.797729,234.957306 
	C1287.191284,235.020752 1251.584595,235.008163 1215.299927,234.773865 
	C1210.448975,233.435959 1212.461060,230.647156 1213.300049,228.658615 
	C1223.938232,203.447479 1234.644653,178.264648 1245.536377,153.162537 
	C1246.169189,151.704178 1248.541382,151.000549 1250.104126,149.945709 
z"/>
<path fill="#FF8500" opacity="1.000000" stroke="none" 
	d="
M479.371033,1056.957275 
	C481.250946,1048.623779 483.219452,1040.082764 485.676697,1031.684692 
	C499.173187,985.558533 512.749756,939.455750 526.377136,893.368042 
	C536.622681,858.717896 547.044495,824.119812 557.282104,789.467285 
	C569.677307,747.511597 581.968811,705.525330 594.286743,663.546875 
	C596.896423,654.653259 599.426514,645.736267 602.410156,636.406494 
	C611.194641,635.656067 619.559753,635.156921 627.930420,635.033936 
	C656.219666,634.618225 684.510864,634.331543 712.801392,634.004089 
	C742.091797,633.665039 771.382446,633.339539 800.672852,633.001404 
	C829.130066,632.672913 857.587097,632.331421 886.044312,632.003967 
	C915.501404,631.664917 944.957947,631.238159 974.416016,631.033936 
	C997.248108,630.875610 1020.082275,630.977112 1042.915283,631.047607 
	C1044.627563,631.052917 1046.337769,631.736633 1048.048950,632.104919 
	C1044.173340,635.698914 1040.581909,639.672791 1036.373047,642.821350 
	C1017.841553,656.684875 999.107483,670.277405 980.493652,684.031433 
	C961.607422,697.986694 942.762085,711.997314 923.925049,726.019043 
	C903.643677,741.115906 883.418823,756.288940 863.121399,771.364258 
	C841.658020,787.305542 820.101196,803.121094 798.653931,819.083984 
	C778.364441,834.185059 758.173035,849.417969 737.921814,864.570557 
	C717.676086,879.719360 697.430176,894.868042 677.146362,909.965820 
	C655.694275,925.933228 634.185242,941.824097 612.723816,957.778992 
	C591.127014,973.834534 569.561646,989.932312 547.975891,1006.002686 
	C526.521423,1021.975342 505.058807,1037.937134 483.599731,1053.903564 
	C482.295044,1054.874390 480.990082,1055.844971 479.371033,1056.957275 
z"/>
<path fill="#FF7900" opacity="1.000000" stroke="none" 
	d="
M1048.371094,631.933594 
	C1046.337769,631.736633 1044.627563,631.052917 1042.915283,631.047607 
	C1020.082275,630.977112 997.248108,630.875610 974.416016,631.033936 
	C944.957947,631.238159 915.501404,631.664917 886.044312,632.003967 
	C857.587097,632.331421 829.130066,632.672913 800.672852,633.001404 
	C771.382446,633.339539 742.091797,633.665039 712.801392,634.004089 
	C684.510864,634.331543 656.219666,634.618225 627.930420,635.033936 
	C619.559753,635.156921 611.194641,635.656067 602.408813,635.995361 
	C601.990723,636.007874 601.999023,635.992493 602.052612,635.641846 
	C602.823669,634.650024 603.440918,633.802307 604.273560,633.398315 
	C619.067749,626.217163 633.891418,619.096924 648.701782,611.949219 
	C662.334045,605.370117 675.983887,598.826782 689.578918,592.171631 
	C705.238892,584.505615 720.821777,576.682190 736.485718,569.024536 
	C750.082886,562.377258 763.783325,555.940857 777.371216,549.275024 
	C793.625488,541.301208 809.760010,533.082581 826.033752,525.149048 
	C854.573425,511.235840 883.210999,497.523315 911.745972,483.600464 
	C928.167908,475.587830 944.416626,467.220581 960.835266,459.201141 
	C992.935242,443.522430 1025.103394,427.983429 1057.236084,412.371735 
	C1082.207886,400.239227 1107.188843,388.125610 1132.120239,375.910828 
	C1138.503296,372.783569 1144.714111,369.304626 1151.408203,365.989563 
	C1153.913452,366.347229 1156.014282,366.702515 1158.115234,367.057861 
	C1155.103638,374.570282 1152.133545,382.099640 1149.072876,389.592010 
	C1139.020020,414.201172 1129.005371,438.826233 1118.841797,463.389679 
	C1108.611816,488.114014 1098.166016,512.749023 1087.917114,537.465637 
	C1078.853760,559.322815 1069.973511,581.255859 1060.927246,603.120178 
	C1056.958374,612.712708 1052.777710,622.217651 1048.371094,631.933594 
z"/>
<path fill="#FF6000" opacity="1.000000" stroke="none" 
	d="
M1158.393921,366.935059 
	C1156.014282,366.702515 1153.913452,366.347229 1151.349365,365.641510 
	C1142.750366,361.268555 1134.658813,357.152954 1126.469482,353.242096 
	C1107.423096,344.146454 1088.306641,335.197601 1069.260254,326.101746 
	C1037.157837,310.770752 1005.087830,295.371826 973.004150,280.001434 
	C976.260803,276.270996 979.225037,272.225616 982.833801,268.874329 
	C990.943176,261.343506 999.403931,254.192444 1007.659912,246.817688 
	C1012.804260,242.222397 1017.835693,237.500793 1022.964233,232.501007 
	C1035.677979,220.936401 1048.353271,209.715805 1061.010498,198.474579 
	C1076.128784,185.047516 1091.206543,171.574646 1106.359131,158.186371 
	C1109.903809,155.054367 1113.678833,152.183136 1117.931274,149.456345 
	C1119.012207,150.859192 1119.758667,151.953552 1119.969238,153.142792 
	C1122.471558,167.271393 1124.761597,181.438644 1127.371948,195.546799 
	C1130.432861,212.089478 1133.868164,228.562881 1136.931519,245.105118 
	C1140.261719,263.090118 1143.364746,281.117279 1146.540771,299.130615 
	C1149.061523,313.426514 1151.433228,327.749725 1154.087036,342.020660 
	C1155.523560,349.746063 1157.412476,357.387390 1159.097290,365.066620 
	C1158.955688,365.648499 1158.814087,366.230377 1158.393921,366.935059 
z"/>
<path fill="#E04500" opacity="1.000000" stroke="none" 
	d="
M1159.423706,364.889404 
	C1157.412476,357.387390 1155.523560,349.746063 1154.087036,342.020660 
	C1151.433228,327.749725 1149.061523,313.426514 1146.540771,299.130615 
	C1143.364746,281.117279 1140.261719,263.090118 1136.931519,245.105118 
	C1133.868164,228.562881 1130.432861,212.089478 1127.371948,195.546799 
	C1124.761597,181.438644 1122.471558,167.271393 1119.969238,153.142792 
	C1119.758667,151.953552 1119.012207,150.859192 1118.276367,149.443024 
	C1161.903687,149.178345 1205.769287,149.191391 1249.869385,149.575073 
	C1248.541382,151.000549 1246.169189,151.704178 1245.536377,153.162537 
	C1234.644653,178.264648 1223.938232,203.447479 1213.300049,228.658615 
	C1212.461060,230.647156 1210.448975,233.435959 1214.836426,234.819595 
	C1208.454956,250.191681 1201.772461,265.242645 1195.286743,280.377960 
	C1188.737671,295.661011 1182.392578,311.031433 1175.941284,326.356506 
	C1170.556885,339.147095 1165.148071,351.927368 1159.423706,364.889404 
z"/>
<path fill="#FF8500" opacity="1.000000" stroke="none" 
	d="
M478.293335,1058.016357 
	C478.232117,1057.818970 478.424591,1057.529053 478.862335,1057.134766 
	C478.920746,1057.328247 478.733887,1057.626099 478.293335,1058.016357 
z"/>
<path fill="#FF6D00" opacity="1.000000" stroke="none" 
	d="
M972.676880,279.859131 
	C1005.087830,295.371826 1037.157837,310.770752 1069.260254,326.101746 
	C1088.306641,335.197601 1107.423096,344.146454 1126.469482,353.242096 
	C1134.658813,357.152954 1142.750366,361.268555 1150.945190,365.639160 
	C1144.714111,369.304626 1138.503296,372.783569 1132.120239,375.910828 
	C1107.188843,388.125610 1082.207886,400.239227 1057.236084,412.371735 
	C1025.103394,427.983429 992.935242,443.522430 960.835266,459.201141 
	C944.416626,467.220581 928.167908,475.587830 911.745972,483.600464 
	C883.210999,497.523315 854.573425,511.235840 826.033752,525.149048 
	C809.760010,533.082581 793.625488,541.301208 777.371216,549.275024 
	C763.783325,555.940857 750.082886,562.377258 736.485718,569.024536 
	C720.821777,576.682190 705.238892,584.505615 689.578918,592.171631 
	C675.983887,598.826782 662.334045,605.370117 648.701782,611.949219 
	C633.891418,619.096924 619.067749,626.217163 604.273560,633.398315 
	C603.440918,633.802307 602.823669,634.650024 602.056030,635.634644 
	C600.936951,635.987671 599.868042,635.997253 598.399536,635.537476 
	C597.672363,579.445435 597.351562,523.822754 597.015137,468.200226 
	C596.690857,414.577454 596.342712,360.954834 596.019104,307.332031 
	C595.674316,250.209641 595.337769,193.087189 595.017456,135.964676 
	C594.950134,123.966080 594.969055,111.967003 594.963623,99.668419 
	C594.995483,98.968575 595.011963,98.568466 595.028503,98.168350 
	C597.972473,98.910683 601.124023,99.208054 603.826355,100.468468 
	C619.848083,107.941284 635.765747,115.637314 651.890015,123.570793 
	C651.676514,126.704979 652.653259,128.148193 655.523132,129.456406 
	C670.488708,136.278275 685.278381,143.486160 700.125244,150.568375 
	C736.836304,168.080185 773.537354,185.613007 810.258057,203.104660 
	C828.989502,212.027283 847.758179,220.871933 866.503723,229.765121 
	C899.807007,245.564713 933.103699,261.378357 966.410706,277.170044 
	C968.355652,278.092163 970.368469,278.871216 972.676880,279.859131 
z"/>
<path fill="#FF9100" opacity="1.000000" stroke="none" 
	d="
M594.948242,99.968155 
	C594.969055,111.967003 594.950134,123.966080 595.017456,135.964676 
	C595.337769,193.087189 595.674316,250.209641 596.019104,307.332031 
	C596.342712,360.954834 596.690857,414.577454 597.015137,468.200226 
	C597.351562,523.822754 597.672363,579.445435 597.998779,635.537354 
	C597.786194,636.279358 597.574768,636.551880 597.125916,636.936646 
	C591.327026,630.220642 585.741272,623.411987 580.209839,616.559509 
	C572.198181,606.634583 564.226990,596.677063 556.236450,586.735107 
	C544.042725,571.563599 531.884399,556.363525 519.640198,541.232910 
	C510.573944,530.029419 501.351257,518.952698 492.277466,507.755219 
	C481.361633,494.284515 470.565735,480.716553 459.650299,467.245514 
	C450.576904,456.047760 441.369049,444.959015 432.287811,433.767548 
	C422.702606,421.954987 413.231812,410.049561 403.646362,398.237183 
	C394.564941,387.045868 385.356354,375.957733 376.282593,364.760284 
	C365.366699,351.289612 354.581482,337.712952 343.645294,324.258881 
	C338.266235,317.641418 332.674500,311.196838 327.328674,304.138000 
	C327.656860,302.404572 327.835388,301.207123 328.366241,299.972321 
	C330.147339,299.121399 331.690430,298.458252 332.987762,297.471893 
	C355.807007,280.122437 378.559326,262.684753 401.403137,245.367844 
	C421.209961,230.353149 441.154602,215.520264 460.963440,200.508209 
	C486.451019,181.192505 511.852570,161.763306 537.312866,142.411560 
	C554.190552,129.583237 571.106201,116.804970 588.307007,103.857468 
	C590.722229,102.463158 592.835205,101.215660 594.948242,99.968155 
z"/>
<path fill="#FFB600" opacity="1.000000" stroke="none" 
	d="
M477.568207,762.936096 
	C477.363007,764.693665 477.262024,766.929199 476.107819,768.230347 
	C470.710754,774.314758 465.046021,780.163208 459.435059,786.056152 
	C445.573242,800.614624 431.664276,815.128235 417.820618,829.703918 
	C406.613251,841.503784 395.472961,853.367432 384.303436,865.203308 
	C367.548981,882.957153 350.797546,900.713867 334.040100,918.464905 
	C322.640198,930.540894 311.205444,942.584045 299.836487,954.689026 
	C290.860199,964.246521 282.033112,973.945801 272.936829,983.386597 
	C271.765778,984.601990 269.374725,984.641907 267.221832,985.084961 
	C256.339844,969.875549 245.783463,954.808411 235.230164,939.739197 
	C223.546768,923.056458 211.844788,906.386597 200.197525,889.678589 
	C196.718384,884.687744 197.075272,884.366943 202.884827,881.911316 
	C216.364578,876.213501 229.720139,870.222656 243.151825,864.410156 
	C262.843597,855.888550 282.577271,847.463562 302.256622,838.913391 
	C318.516968,831.848694 334.700684,824.607605 350.961151,817.543091 
	C373.026733,807.956543 395.149780,798.502136 417.216675,788.918518 
	C433.477692,781.856445 449.679962,774.659363 465.927704,767.566528 
	C469.640228,765.945801 473.431946,764.506409 477.568207,762.936096 
z"/>
<path fill="#FFAA00" opacity="1.000000" stroke="none" 
	d="
M594.963623,99.668419 
	C592.835205,101.215660 590.722229,102.463158 588.044189,103.571274 
	C586.341614,103.338814 585.172729,103.028023 584.071350,103.186386 
	C573.282532,104.737732 562.517761,106.460617 551.721130,107.953537 
	C533.878235,110.420822 516.003418,112.658676 498.166779,115.169075 
	C478.046631,118.000862 457.966522,121.117447 437.845581,123.943245 
	C417.718079,126.769958 397.555359,129.345047 377.419464,132.113342 
	C353.852814,135.353271 330.303741,138.721512 306.737000,141.960831 
	C288.893005,144.413528 271.018463,146.647202 253.184616,149.169876 
	C235.684402,151.645355 218.236542,154.492432 200.732651,156.940002 
	C180.277298,159.800262 159.770386,162.291702 139.315399,165.154388 
	C121.811455,167.604065 104.367966,170.485840 86.863716,172.933090 
	C66.408524,175.792923 45.911160,178.350006 25.444511,181.129868 
	C21.021008,181.730667 16.650425,182.721115 12.255467,183.532089 
	C12.244617,184.000885 12.233766,184.469681 12.222915,184.938477 
	C14.481930,185.626068 16.740946,186.313644 19.030499,187.294174 
	C19.707590,187.724274 20.354141,187.861435 21.385040,188.004791 
	C27.179588,190.007736 32.589790,192.004471 38.030521,194.294159 
	C38.707600,194.724258 39.354149,194.861420 40.385040,195.004807 
	C46.179588,197.007751 51.589790,199.004486 57.030521,201.294159 
	C57.707600,201.724258 58.354149,201.861420 59.385040,202.004791 
	C65.179588,204.007751 70.589790,206.004486 76.030533,208.294144 
	C76.707588,208.724243 77.354111,208.861404 78.384979,209.004791 
	C84.179550,211.007751 89.589775,213.004486 95.030533,215.294159 
	C95.707581,215.724258 96.354111,215.861420 97.384979,216.004791 
	C103.179550,218.007751 108.589775,220.004486 114.030533,222.294144 
	C114.707588,222.724243 115.354111,222.861404 116.384979,223.004791 
	C122.179550,225.007751 127.589775,227.004486 133.030533,229.294159 
	C133.707581,229.724258 134.354095,229.861420 135.384964,230.004822 
	C141.179535,232.007767 146.589767,234.004501 152.030533,236.294159 
	C152.707581,236.724243 153.354095,236.861404 154.384964,237.004791 
	C160.179550,239.007751 165.589767,241.004486 171.030533,243.294159 
	C171.707581,243.724243 172.354095,243.861420 173.384964,244.004791 
	C179.179550,246.007751 184.589767,248.004486 190.030533,250.294159 
	C190.707581,250.724258 191.354095,250.861420 192.384964,251.004791 
	C198.179550,253.007751 203.589767,255.004486 209.030518,257.294159 
	C209.707565,257.724335 210.354080,257.861542 211.384949,258.004944 
	C217.179535,260.007812 222.589767,262.004517 228.030518,264.294159 
	C228.707565,264.724304 229.354080,264.861542 230.384949,265.004944 
	C236.179535,267.007812 241.589767,269.004517 247.030518,271.294159 
	C247.707565,271.724304 248.354095,271.861542 249.384949,272.004944 
	C255.179535,274.007812 260.589752,276.004517 266.030548,278.294159 
	C266.707764,278.724304 267.354462,278.861542 268.385437,279.004944 
	C274.179840,281.007812 279.589935,283.004517 285.030548,285.294159 
	C285.707764,285.724335 286.354462,285.861542 287.385437,286.004944 
	C293.179840,288.007812 298.589935,290.004517 304.030548,292.294159 
	C304.707764,292.724335 305.354462,292.861572 306.385559,293.004944 
	C308.016602,293.418335 309.264191,293.822449 310.509583,294.233215 
	C316.344696,296.157684 322.179169,298.084015 328.013885,300.009674 
	C327.835388,301.207123 327.656860,302.404572 327.191040,303.827728 
	C317.426819,300.700989 307.925537,297.415527 298.478027,293.982056 
	C279.092163,286.936829 259.718353,279.857697 240.370300,272.709351 
	C213.252045,262.690216 186.172195,252.567200 159.056854,242.540146 
	C127.371750,230.823196 95.675148,219.137177 63.966141,207.485077 
	C44.301113,200.258774 24.594294,193.146072 4.944939,185.877731 
	C3.791748,185.451157 2.985226,184.087418 2.017386,183.159775 
	C3.089699,182.221085 4.050600,180.666321 5.253330,180.448822 
	C10.881809,179.430969 16.576710,178.780029 22.248272,178.000854 
	C31.313869,176.755417 40.378574,175.503372 49.445915,174.270737 
	C57.548508,173.169250 65.661812,172.143845 73.756561,170.988068 
	C84.747643,169.418747 95.716393,167.691650 106.712105,166.156754 
	C114.978409,165.002869 123.284912,164.136520 131.550339,162.976959 
	C142.221069,161.479935 152.858566,159.746231 163.529099,158.247635 
	C174.219193,156.746307 184.940765,155.469833 195.632965,153.982773 
	C206.631424,152.453125 217.605789,150.750961 228.600464,149.193253 
	C238.799332,147.748306 249.016190,146.430573 259.215790,144.990646 
	C270.373352,143.415497 281.512451,141.708313 292.674011,140.162704 
	C303.205872,138.704285 313.767883,137.462097 324.295624,135.975952 
	C335.125031,134.447220 345.917267,132.654739 356.747528,131.132416 
	C367.277527,129.652283 377.847809,128.458405 388.377075,126.973305 
	C399.205719,125.445976 409.994537,123.636658 420.822235,122.102219 
	C431.187988,120.633255 441.592896,119.441208 451.959564,117.978371 
	C465.217407,116.107574 478.445984,114.029633 491.702667,112.150253 
	C502.067200,110.680878 512.465027,109.446465 522.830383,107.982399 
	C533.821899,106.429893 544.783447,104.664024 555.775513,103.115417 
	C563.878479,101.973824 572.012390,101.052986 580.127014,99.992340 
	C584.816711,99.379364 589.495605,98.684204 594.603943,98.097198 
	C595.011963,98.568466 594.995483,98.968575 594.963623,99.668419 
z"/>
<path fill="#FFB600" opacity="1.000000" stroke="none" 
	d="
M133.000000,229.001221 
	C127.589775,227.004486 122.179550,225.007751 116.218048,222.759247 
	C115.111176,222.338715 114.555588,222.169968 114.000000,222.001221 
	C108.589775,220.004486 103.179550,218.007751 97.218048,215.759247 
	C96.111176,215.338730 95.555588,215.169968 95.000000,215.001221 
	C89.589775,213.004486 84.179550,211.007751 78.218048,208.759247 
	C77.111183,208.338715 76.555595,208.169952 76.000000,208.001221 
	C70.589790,206.004486 65.179588,204.007751 59.218090,201.759247 
	C58.111195,201.338730 57.555592,201.169968 56.999992,201.001221 
	C51.589790,199.004486 46.179588,197.007751 40.218086,194.759262 
	C39.111187,194.338745 38.555588,194.169983 37.999989,194.001221 
	C32.589790,192.004471 27.179588,190.007736 21.218084,187.759247 
	C20.111176,187.338730 19.555571,187.169983 18.999962,187.001221 
	C16.740946,186.313644 14.481930,185.626068 12.222915,184.938477 
	C12.233766,184.469681 12.244617,184.000885 12.255467,183.532089 
	C16.650425,182.721115 21.021008,181.730667 25.444511,181.129868 
	C45.911160,178.350006 66.408524,175.792923 86.863716,172.933090 
	C104.367966,170.485840 121.811455,167.604065 139.315399,165.154388 
	C159.770386,162.291702 180.277298,159.800262 200.732651,156.940002 
	C218.236542,154.492432 235.684402,151.645355 253.184616,149.169876 
	C271.018463,146.647202 288.893005,144.413528 306.737000,141.960831 
	C330.303741,138.721512 353.852814,135.353271 377.419464,132.113342 
	C397.555359,129.345047 417.718079,126.769958 437.845581,123.943245 
	C457.966522,121.117447 478.046631,118.000862 498.166779,115.169075 
	C516.003418,112.658676 533.878235,110.420822 551.721130,107.953537 
	C562.517761,106.460617 573.282532,104.737732 584.071350,103.186386 
	C585.172729,103.028023 586.341614,103.338814 587.742004,103.718094 
	C571.106201,116.804970 554.190552,129.583237 537.312866,142.411560 
	C511.852570,161.763306 486.451019,181.192505 460.963440,200.508209 
	C441.154602,215.520264 421.209961,230.353149 401.403137,245.367844 
	C378.559326,262.684753 355.807007,280.122437 332.987762,297.471893 
	C331.690430,298.458252 330.147339,299.121399 328.366241,299.972321 
	C322.179169,298.084015 316.344696,296.157684 310.509583,294.233215 
	C309.264191,293.822449 308.016602,293.418335 306.218506,292.759430 
	C305.111359,292.338898 304.555664,292.170074 304.000000,292.001221 
	C298.589935,290.004517 293.179840,288.007812 287.218384,285.759399 
	C286.111359,285.338867 285.555664,285.170044 285.000000,285.001221 
	C279.589935,283.004517 274.179840,281.007812 268.218384,278.759399 
	C267.111359,278.338867 266.555664,278.170044 266.000000,278.001221 
	C260.589752,276.004517 255.179535,274.007812 249.218048,271.759369 
	C248.111206,271.338837 247.555603,271.170013 247.000000,271.001221 
	C241.589767,269.004517 236.179535,267.007812 230.218048,264.759369 
	C229.111206,264.338806 228.555603,264.170013 228.000000,264.001221 
	C222.589767,262.004517 217.179535,260.007812 211.218048,257.759369 
	C210.111206,257.338837 209.555603,257.170013 209.000000,257.001221 
	C203.589767,255.004486 198.179550,253.007751 192.218048,250.759247 
	C191.111176,250.338730 190.555588,250.169983 190.000000,250.001221 
	C184.589767,248.004486 179.179550,246.007751 173.218048,243.759247 
	C172.111176,243.338730 171.555588,243.169983 171.000000,243.001221 
	C165.589767,241.004486 160.179550,239.007751 154.218048,236.759247 
	C153.111176,236.338730 152.555588,236.169983 152.000000,236.001221 
	C146.589767,234.004501 141.179535,232.007767 135.218048,229.759262 
	C134.111176,229.338730 133.555588,229.169983 133.000000,229.001221 
z"/>
<path fill="#FFAB00" opacity="1.000000" stroke="none" 
	d="
M133.030533,229.294159 
	C133.555588,229.169983 134.111176,229.338730 134.833679,229.753052 
	C134.354095,229.861420 133.707581,229.724258 133.030533,229.294159 
z"/>
<path fill="#FFAB00" opacity="1.000000" stroke="none" 
	d="
M304.030548,292.294159 
	C304.555664,292.170074 305.111359,292.338898 305.834076,292.753235 
	C305.354462,292.861572 304.707764,292.724335 304.030548,292.294159 
z"/>
<path fill="#FFAB00" opacity="1.000000" stroke="none" 
	d="
M285.030548,285.294159 
	C285.555664,285.170044 286.111359,285.338867 286.834076,285.753235 
	C286.354462,285.861542 285.707764,285.724335 285.030548,285.294159 
z"/>
<path fill="#FFAB00" opacity="1.000000" stroke="none" 
	d="
M266.030548,278.294159 
	C266.555664,278.170044 267.111359,278.338867 267.834076,278.753235 
	C267.354462,278.861542 266.707764,278.724304 266.030548,278.294159 
z"/>
<path fill="#FFAB00" opacity="1.000000" stroke="none" 
	d="
M247.030518,271.294159 
	C247.555603,271.170013 248.111206,271.338837 248.833710,271.753204 
	C248.354095,271.861542 247.707565,271.724304 247.030518,271.294159 
z"/>
<path fill="#FFAB00" opacity="1.000000" stroke="none" 
	d="
M228.030518,264.294159 
	C228.555603,264.170013 229.111206,264.338806 229.833710,264.753204 
	C229.354080,264.861542 228.707565,264.724304 228.030518,264.294159 
z"/>
<path fill="#FFAB00" opacity="1.000000" stroke="none" 
	d="
M209.030518,257.294159 
	C209.555603,257.170013 210.111206,257.338837 210.833710,257.753204 
	C210.354080,257.861542 209.707565,257.724335 209.030518,257.294159 
z"/>
<path fill="#FFAB00" opacity="1.000000" stroke="none" 
	d="
M190.030533,250.294159 
	C190.555588,250.169983 191.111176,250.338730 191.833679,250.753036 
	C191.354095,250.861420 190.707581,250.724258 190.030533,250.294159 
z"/>
<path fill="#FFAB00" opacity="1.000000" stroke="none" 
	d="
M171.030533,243.294159 
	C171.555588,243.169983 172.111176,243.338730 172.833679,243.753036 
	C172.354095,243.861420 171.707581,243.724243 171.030533,243.294159 
z"/>
<path fill="#FFAB00" opacity="1.000000" stroke="none" 
	d="
M152.030533,236.294159 
	C152.555588,236.169983 153.111176,236.338730 153.833679,236.753036 
	C153.354095,236.861404 152.707581,236.724243 152.030533,236.294159 
z"/>
<path fill="#FFAB00" opacity="1.000000" stroke="none" 
	d="
M114.030533,222.294144 
	C114.555588,222.169968 115.111176,222.338715 115.833694,222.753021 
	C115.354111,222.861404 114.707588,222.724243 114.030533,222.294144 
z"/>
<path fill="#FFAB00" opacity="1.000000" stroke="none" 
	d="
M95.030533,215.294159 
	C95.555588,215.169968 96.111176,215.338730 96.833694,215.753021 
	C96.354111,215.861420 95.707581,215.724258 95.030533,215.294159 
z"/>
<path fill="#FFAB00" opacity="1.000000" stroke="none" 
	d="
M76.030533,208.294128 
	C76.555595,208.169952 77.111183,208.338715 77.833702,208.753021 
	C77.354111,208.861404 76.707588,208.724243 76.030533,208.294128 
z"/>
<path fill="#FFAB00" opacity="1.000000" stroke="none" 
	d="
M57.030525,201.294159 
	C57.555592,201.169968 58.111195,201.338730 58.833748,201.753036 
	C58.354149,201.861420 57.707600,201.724258 57.030525,201.294159 
z"/>
<path fill="#FFAB00" opacity="1.000000" stroke="none" 
	d="
M38.030518,194.294159 
	C38.555588,194.169983 39.111187,194.338745 39.833740,194.753052 
	C39.354149,194.861420 38.707600,194.724258 38.030518,194.294159 
z"/>
<path fill="#FFAB00" opacity="1.000000" stroke="none" 
	d="
M19.030502,187.294159 
	C19.555571,187.169983 20.111176,187.338730 20.833736,187.753052 
	C20.354141,187.861435 19.707590,187.724274 19.030502,187.294159 
z"/>
</svg>